<svg width="138" height="138" viewBox="0 0 138 138" fill="none" xmlns="http://www.w3.org/2000/svg">
<path d="M9 69C9 84.913 15.3214 100.174 26.5736 111.426C37.8258 122.679 53.087 129 69 129C84.913 129 100.174 122.679 111.426 111.426C122.679 100.174 129 84.913 129 69C129 53.087 122.679 37.8258 111.426 26.5736C100.174 15.3214 84.913 9 69 9C53.087 9 37.8258 15.3214 26.5736 26.5736C15.3214 37.8258 9 53.087 9 69Z" fill="white"/>
<path d="M92.9677 57.5989C93.2044 57.6291 95.0094 57.2363 95.0686 57.3572C95.1574 57.5083 95.9859 63.4607 95.7787 63.4909C95.5716 63.5211 94.0921 63.8837 94.0921 63.8837C93.9738 63.0981 92.9973 58.1126 92.9677 57.5989ZM95.8675 57.0248L96.6664 63.4003C97.0807 63.4003 98.7081 63.2492 98.8561 63.2492C98.6194 60.832 98.2347 57.0248 98.2347 57.0248C97.4358 56.8737 96.6369 56.8737 95.8675 57.0248ZM94.2993 65.8477C94.2993 65.8477 97.85 64.9413 99.1224 65.3643C99.7734 67.7815 100.957 81.2878 101.075 81.8317C100.247 81.9223 97.6133 82.1641 97.4062 82.2245C97.2582 81.2274 94.2993 66.4822 94.2993 65.8477ZM107.467 57.75C107.674 57.8104 109.568 57.5385 109.568 57.6896C109.597 58.173 109.804 63.8535 109.568 63.8535L107.851 64.0046C107.822 63.219 107.408 58.2636 107.467 57.75ZM110.337 57.5989L110.485 63.8837C110.899 63.8837 112.497 63.9744 112.675 63.9744C112.645 61.5571 112.675 57.75 112.675 57.75C111.905 57.6291 111.136 57.5687 110.337 57.5989ZM107.881 66.0592C107.881 66.0592 111.491 65.5758 112.734 66.1499C113 68.9599 112.97 82.1036 113 82.6777C112.171 82.6777 109.538 82.7079 109.331 82.7684C109.301 81.7108 107.822 66.6938 107.881 66.0592ZM99.4479 49.8638C101.549 60.7413 103.147 79.354 103.176 80.5626C103.176 80.5626 104.833 80.5929 106.697 80.7137C105.603 68.9901 104.271 50.2263 104.271 49.6523C103.827 49.1386 99.4479 49.894 99.4479 49.8638ZM94.8319 75.6375C94.4176 72.5858 83.7357 69.111 77.6994 70.229C77.6994 70.229 76.9597 63.5211 76.6638 56.9644C76.427 51.3745 76.6342 45.9055 76.6638 45.0293C76.2495 44.7271 71.9294 46.8422 69.5918 47.7185C69.5918 47.7185 72.4028 59.8349 74.4149 84.9439C74.4149 84.9439 77.6698 85.3065 83.2327 84.1885C88.7956 83.1007 95.3941 79.6864 94.8319 75.6375ZM81.7532 81.1367L80.8063 74.2174C81.043 74.0965 86.813 76.3023 87.4344 76.6951C87.3457 77.1181 81.7532 81.1367 81.7532 81.1367ZM48.3759 57.5989C48.6126 57.6291 50.4176 57.2363 50.4768 57.3572C50.536 57.5083 51.3941 63.4607 51.187 63.4909C50.9798 63.5211 49.4707 63.8837 49.4707 63.8837C49.382 63.0679 48.4055 58.1126 48.3759 57.5989ZM51.2461 57.0248L52.0451 63.4003C52.4593 63.4003 54.0868 63.2492 54.2347 63.2492C53.998 60.832 53.6133 57.0248 53.6133 57.0248C52.8144 56.8435 52.0155 56.8435 51.2461 57.0248ZM49.6779 65.8477C49.6779 65.8477 53.2286 64.9413 54.501 65.3643C55.152 67.7815 56.3356 81.2878 56.4539 81.8317C55.6254 81.9223 52.9919 82.1641 52.7848 82.2245C52.6664 81.2576 49.6779 66.5125 49.6779 65.8477ZM62.8453 57.75C63.0525 57.8104 64.9462 57.5385 64.9462 57.6896C64.9758 58.173 65.1829 63.8535 64.9758 63.8535L63.2596 64.0046C63.2004 63.2492 62.8157 58.2939 62.8453 57.75ZM65.7155 57.5989L65.8635 63.8837C66.2777 63.8837 67.8756 63.9744 68.0531 63.9744C68.0235 61.5571 68.0531 57.75 68.0531 57.75C67.2838 57.6291 66.5145 57.5687 65.7155 57.5989ZM63.2596 66.029C63.2596 66.029 66.8695 65.5456 68.1123 66.1197C68.3786 68.9297 68.349 82.0734 68.3786 82.6475C67.5501 82.6475 64.9166 82.6777 64.7095 82.7382C64.7095 81.7108 63.2004 66.6635 63.2596 66.029ZM54.8265 49.8638C56.9274 60.7413 58.5252 79.354 58.5548 80.5626C58.5548 80.5626 60.2118 80.5929 62.076 80.7137C60.9812 68.9901 59.6496 50.2263 59.6496 49.5918C59.2058 49.1084 54.8265 49.8638 54.8265 49.8638ZM50.2401 75.6375C49.8258 72.5858 39.1439 69.111 33.1076 70.229C33.1076 70.229 32.3679 63.5211 32.072 56.9644C31.8352 51.3745 32.0424 45.9055 32.072 45.0293C31.6873 44.7574 27.3376 46.8422 25 47.7185C25 47.7185 27.811 59.8349 29.8231 84.9439C29.8231 84.9439 33.078 85.3065 38.6409 84.1885C44.2038 83.1007 50.8023 79.6864 50.2401 75.6375ZM37.1614 81.1367L36.2145 74.2174C36.4512 74.0965 42.2213 76.3023 42.8426 76.6951C42.7243 77.1181 37.1614 81.1367 37.1614 81.1367Z" fill="#C19746"/>
</svg>
