<svg width="42" height="24" viewBox="0 0 42 24" fill="none" xmlns="http://www.w3.org/2000/svg">
<g filter="url(#filter0_i_72_171)">
<path d="M5.4999 13.7202C5.99988 11.7202 8.9999 12.7202 8.9999 12.7202C9.49988 9.72025 3.49988 7.72024 0.999886 13.7202C0.142773 16.7202 1.4998 19.4869 3.4999 21.2202C10.4999 26.7202 16.9999 21.2202 16.9999 21.2202C16.9999 21.2202 10.3571 20.7202 7.49986 18.2202C6.357 17.2202 4.99988 16.7202 5.4999 13.7202Z" fill="white"/>
<path d="M5.4999 13.7202C5.99988 11.7202 8.9999 12.7202 8.9999 12.7202C9.49988 9.72025 3.49988 7.72024 0.999886 13.7202C0.142773 16.7202 1.4998 19.4869 3.4999 21.2202C10.4999 26.7202 16.9999 21.2202 16.9999 21.2202C16.9999 21.2202 10.3571 20.7202 7.49986 18.2202C6.357 17.2202 4.99988 16.7202 5.4999 13.7202Z" fill="url(#paint0_linear_72_171)" fill-opacity="0.2"/>
<path d="M36.4999 13.7202C35.9999 11.7202 32.9999 12.7202 32.9999 12.7202C32.4999 9.72025 38.4999 7.72024 40.9999 13.7202C41.857 16.7202 40.5 19.4869 38.4999 21.2202C31.4999 26.7202 24.9999 21.2202 24.9999 21.2202C24.9999 21.2202 31.6428 20.7202 34.5 18.2202C35.6428 17.2202 36.9999 16.7202 36.4999 13.7202Z" fill="white"/>
<path d="M36.4999 13.7202C35.9999 11.7202 32.9999 12.7202 32.9999 12.7202C32.4999 9.72025 38.4999 7.72024 40.9999 13.7202C41.857 16.7202 40.5 19.4869 38.4999 21.2202C31.4999 26.7202 24.9999 21.2202 24.9999 21.2202C24.9999 21.2202 31.6428 20.7202 34.5 18.2202C35.6428 17.2202 36.9999 16.7202 36.4999 13.7202Z" fill="url(#paint1_linear_72_171)" fill-opacity="0.2"/>
<path d="M24.7383 10.6154C24.7383 15.2223 22.9474 21.335 20.7383 21.335C18.5291 21.335 16.7383 15.2223 16.7383 10.6154C16.7383 6.00859 18.7383 0.834961 20.7383 0.334961C22.7383 1.33496 24.7383 6.00859 24.7383 10.6154Z" fill="white"/>
<path d="M24.7383 10.6154C24.7383 15.2223 22.9474 21.335 20.7383 21.335C18.5291 21.335 16.7383 15.2223 16.7383 10.6154C16.7383 6.00859 18.7383 0.834961 20.7383 0.334961C22.7383 1.33496 24.7383 6.00859 24.7383 10.6154Z" fill="url(#paint2_linear_72_171)" fill-opacity="0.2"/>
</g>
<path d="M8.77903 12.3982C8.7187 12.3831 8.65064 12.367 8.57616 12.3509C8.27684 12.2861 7.86744 12.2202 7.43739 12.2202C7.00994 12.2202 6.54201 12.2853 6.14006 12.4996C5.72831 12.7192 5.40009 13.0886 5.25736 13.6596L5.25494 13.6693L5.2533 13.6791C4.9966 15.2193 5.20997 16.1651 5.67624 16.8596C5.90511 17.2005 6.18668 17.4681 6.47448 17.7089C6.59577 17.8103 6.72068 17.9091 6.84334 18.006C6.86567 18.0237 6.88793 18.0413 6.91008 18.0588C7.05524 18.1738 7.19733 18.2877 7.33524 18.4084C8.81579 19.7038 11.247 20.4638 13.2684 20.902C14.286 21.1227 15.2129 21.2644 15.8854 21.351C16.05 21.3722 16.1995 21.3901 16.3314 21.405C16.1711 21.5149 15.9751 21.6425 15.7466 21.7791C15.0419 22.2004 14.0316 22.7053 12.8086 23.0417C10.3718 23.7118 7.08417 23.7161 3.6591 21.0273C1.71604 19.3411 0.421885 16.6767 1.23629 13.8029C2.45203 10.8973 4.48253 9.97856 6.10707 10.0946C6.92985 10.1534 7.6537 10.4762 8.13827 10.9465C8.55063 11.3467 8.7878 11.8498 8.77903 12.3982ZM26.2532 21.7791C26.0247 21.6425 25.8287 21.5149 25.6684 21.405C25.8003 21.3901 25.9498 21.3722 26.1144 21.351C26.7869 21.2644 27.7139 21.1227 28.7315 20.902C30.7528 20.4638 33.184 19.7038 34.6646 18.4084C34.8025 18.2877 34.9446 18.1738 35.0897 18.0588C35.1119 18.0412 35.1342 18.0236 35.1566 18.0059C35.2792 17.909 35.4041 17.8103 35.5253 17.7089C35.8131 17.4681 36.0947 17.2005 36.3236 16.8596C36.7898 16.1651 37.0032 15.2193 36.7465 13.6791L36.7449 13.6693L36.7425 13.6596C36.5997 13.0886 36.2715 12.7192 35.8598 12.4996C35.4578 12.2853 34.9899 12.2202 34.5624 12.2202C34.1324 12.2202 33.723 12.2861 33.4237 12.3509C33.3492 12.367 33.2811 12.3831 33.2208 12.3982C33.212 11.8498 33.4492 11.3467 33.8615 10.9465C34.3461 10.4762 35.07 10.1534 35.8927 10.0946C37.5173 9.97856 39.5478 10.8973 40.7635 13.8029C41.5779 16.6767 40.2838 19.341 38.3407 21.0273C34.9157 23.7161 31.628 23.7118 29.1912 23.0417C27.9682 22.7053 26.9579 22.2004 26.2532 21.7791ZM24.4883 10.6154C24.4883 12.8917 24.045 15.544 23.3303 17.6214C22.9726 18.6611 22.5518 19.5426 22.0945 20.1589C21.631 20.7837 21.1697 21.085 20.7383 21.085C20.3068 21.085 19.8456 20.7837 19.3821 20.1589C18.9248 19.5426 18.5039 18.6611 18.1463 17.6214C17.4316 15.544 16.9883 12.8917 16.9883 10.6154C16.9883 8.34441 17.482 5.9299 18.2213 4.02561C18.591 3.07343 19.0187 2.25778 19.4698 1.65403C19.8939 1.0864 20.3182 0.733601 20.7108 0.603165C21.1348 0.839483 21.576 1.26705 22.0042 1.86144C22.4585 2.49223 22.887 3.29534 23.2563 4.21572C23.9951 6.05706 24.4883 8.34567 24.4883 10.6154Z" stroke="#F3FFE6" stroke-opacity="0.36" stroke-width="0.5"/>
<defs>
<filter id="filter0_i_72_171" x="0.738281" y="0.334961" width="40.5232" height="23.3296" filterUnits="userSpaceOnUse" color-interpolation-filters="sRGB">
<feFlood flood-opacity="0" result="BackgroundImageFix"/>
<feBlend mode="normal" in="SourceGraphic" in2="BackgroundImageFix" result="shape"/>
<feColorMatrix in="SourceAlpha" type="matrix" values="0 0 0 0 0 0 0 0 0 0 0 0 0 0 0 0 0 0 127 0" result="hardAlpha"/>
<feOffset/>
<feGaussianBlur stdDeviation="1.5"/>
<feComposite in2="hardAlpha" operator="arithmetic" k2="-1" k3="1"/>
<feColorMatrix type="matrix" values="0 0 0 0 0.863846 0 0 0 0 0.848009 0 0 0 0 0.38873 0 0 0 0.4 0"/>
<feBlend mode="normal" in2="shape" result="effect1_innerShadow_72_171"/>
</filter>
<linearGradient id="paint0_linear_72_171" x1="20.7383" y1="3.33496" x2="20.7383" y2="20.335" gradientUnits="userSpaceOnUse">
<stop stop-color="#FFFDCD" stop-opacity="0"/>
<stop offset="1" stop-color="#82FF95" stop-opacity="0.25"/>
</linearGradient>
<linearGradient id="paint1_linear_72_171" x1="20.7383" y1="3.33496" x2="20.7383" y2="20.335" gradientUnits="userSpaceOnUse">
<stop stop-color="#FFFDCD" stop-opacity="0"/>
<stop offset="1" stop-color="#82FF95" stop-opacity="0.25"/>
</linearGradient>
<linearGradient id="paint2_linear_72_171" x1="20.7383" y1="3.33496" x2="20.7383" y2="20.335" gradientUnits="userSpaceOnUse">
<stop stop-color="#FFFDCD" stop-opacity="0"/>
<stop offset="1" stop-color="#82FF95" stop-opacity="0.25"/>
</linearGradient>
</defs>
</svg>
