<svg width="138" height="138" viewBox="0 0 138 138" fill="none" xmlns="http://www.w3.org/2000/svg">
<path d="M8 69C8 84.913 14.3214 100.174 25.5736 111.426C36.8258 122.679 52.087 129 68 129C83.913 129 99.1742 122.679 110.426 111.426C121.679 100.174 128 84.913 128 69C128 53.087 121.679 37.8258 110.426 26.5736C99.1742 15.3214 83.913 9 68 9C52.087 9 36.8258 15.3214 25.5736 26.5736C14.3214 37.8258 8 53.087 8 69Z" fill="white"/>
<path d="M99.713 66.0768H102.801C103.285 61.4282 103.043 61.1836 99.713 61.7341V66.0768ZM104.133 79.1663H110.43C110.43 77.209 110.491 75.4352 110.43 73.6614C110.37 72.4992 109.583 71.8264 108.251 71.8264C105.465 71.7653 102.68 71.8264 99.713 71.8264V83.9372H93.2342V71.8264H86.7553V66.1992H93.0525V61.6729C91.7204 61.6117 90.3278 61.5506 88.9351 61.4894V55.9233H93.0525C93.1736 55.2505 93.2342 54.7 93.3553 54.0883H99.5314C99.6525 54.6388 99.713 55.1282 99.8341 55.801C102.922 55.801 106.434 55.8622 107.948 58.4923C109.219 60.6943 109.34 63.4467 110.006 66.138C110.067 66.138 110.612 66.138 111.096 66.1992C114.548 66.505 116.728 68.4011 116.909 71.3983C117.03 74.0284 117.03 76.5974 116.909 79.2275C116.728 82.3469 114.184 84.0596 110.188 83.9984C106.373 83.9372 104.315 82.2858 104.133 79.1663ZM80.4581 78.3712H86.6342V83.8761H64.1097C65.1996 81.9799 66.2289 80.2061 67.3188 78.31H73.616V61.5506H69.6803V55.9845H84.3939V61.4894H80.4581V78.3712ZM58.5996 67.3002C57.0859 67.1778 55.8143 67.1778 54.6033 66.9332C52.9685 66.6885 52.3024 65.6487 52.9685 64.3642C54.7244 61.0613 56.5409 57.8195 58.3574 54.5165C58.5391 54.2107 59.2051 54.0272 59.629 54.0272C61.3244 53.966 62.9592 54.0272 64.9574 54.0272C63.4436 56.7796 61.9904 59.4098 60.5372 62.0399L60.9611 62.3457C63.1409 60.8166 65.6234 61.8564 68.4087 61.4282C66.4106 64.9759 64.5941 68.2176 62.5959 71.7041C64.1702 71.8264 65.2601 71.8264 66.6528 71.9488C65.8656 73.4167 65.0785 74.7624 64.2308 76.108C64.1097 76.3527 63.5647 76.5362 63.262 76.5362C61.2638 76.5362 59.2657 76.6585 57.2675 76.475C55.0877 76.2915 54.3611 75.1905 55.2088 73.4167C56.2382 71.3983 57.3886 69.441 58.5996 67.3002ZM31.776 54.0883H38.1943C38.2549 54.333 38.3154 54.6388 38.3154 54.8835V78.7993C38.3154 82.3469 36.0145 84.1819 32.2604 83.9372C29.5357 83.7537 28.143 82.4693 27.5375 79.3498C28.2641 79.3498 28.9302 79.2886 29.5962 79.2886H31.7155C31.776 79.2886 31.776 54.0883 31.776 54.0883ZM20.9376 61.6117H27.5981C26.266 68.2788 27.7797 75.2517 22.5724 81.4906C21.3009 79.411 20.211 77.576 19.1211 75.6799C19 75.4964 19 75.2517 19 75.007C19.666 70.6031 20.2715 66.1992 20.9376 61.6117ZM47.2163 81.4294C42.3117 75.3129 43.6438 68.34 42.4934 61.6117H49.0327L49.941 71.5206C49.941 71.7041 49.8804 71.8876 49.941 72.0711C51.5758 75.6187 49.0327 78.2488 47.2163 81.4294ZM50.5465 83.9984C51.8786 81.7964 52.7868 80.145 53.8162 78.5547C53.9373 78.31 54.4217 78.0653 54.7244 78.0653C56.2382 78.1265 57.7519 78.31 59.2657 78.3712C60.7794 78.4323 62.2932 78.3712 64.0491 78.3712C63.0198 80.2061 62.051 81.7964 61.0822 83.4479C60.9005 83.6926 60.4767 83.9984 60.1739 83.9984H50.5465ZM110.491 61.4282C110.491 60.3273 110.37 59.2874 110.491 58.2476C110.673 56.7796 112.186 55.7398 113.821 55.8622C115.395 55.9845 116.667 57.0855 116.849 58.4923C116.97 59.8991 115.819 61.3059 114.124 61.4282C112.973 61.4894 111.762 61.4282 110.491 61.4282Z" fill="#C19746"/>
</svg>
