<svg width="120" height="120" viewBox="0 0 120 120" fill="none" xmlns="http://www.w3.org/2000/svg">
<g clip-path="url(#clip0_234_107)">
<circle cx="60" cy="60" r="51" fill="#C19646"/>
<path d="M67.9455 59.9844C66.5781 59.9844 65.2102 61.2542 65.2102 62.8173C65.2102 64.0874 66.5774 65.3574 67.9455 65.3574C69.9977 65.3574 71.463 64.0874 71.463 62.8173C71.463 61.2543 69.9977 59.9844 67.9455 59.9844ZM58.9569 46.7939C61.1063 46.7939 62.4744 45.4266 62.4744 43.3743C62.4744 41.2247 61.1065 39.9548 58.9569 39.9548C56.9052 39.9548 54.951 41.2248 54.951 43.3743C54.9509 45.4267 56.9052 46.7939 58.9569 46.7939ZM60.0316 0.0654297C26.9122 0.0654297 0.0639648 26.9136 0.0639648 60.0331C0.0639648 93.1523 26.9122 120.001 60.0316 120.001C93.1508 120.001 119.999 93.1523 119.999 60.0331C119.999 26.9136 93.151 0.0654297 60.0316 0.0654297ZM48.6982 75.2257C45.0828 75.2257 42.4448 74.6399 39.0253 73.6625L29.1572 78.6459L31.9911 70.2429C25.0541 65.3582 20.9501 59.2027 20.9501 51.6794C20.9501 38.3916 33.4563 28.2303 48.6983 28.2303C62.1813 28.2303 74.199 36.2422 76.5437 47.5762C75.5668 47.3803 74.6872 47.2831 73.9057 47.2831C60.618 47.2831 50.3594 57.2486 50.3594 69.2663C50.3594 71.3178 50.6525 73.1741 51.1411 75.1285C50.3594 75.2257 49.4798 75.2257 48.6982 75.2257ZM89.4408 84.8006L91.3945 91.8357L83.9691 87.6346C81.1359 88.2203 78.4 89.0998 75.5668 89.0998C62.4743 89.0998 52.1178 80.1113 52.1178 68.9732C52.1178 57.835 62.4744 48.8463 75.5668 48.8463C87.9749 48.8463 99.1131 57.835 99.1131 68.9732C99.1131 75.2257 94.912 80.7948 89.4408 84.8006ZM39.6116 39.9548C37.5599 39.9548 35.4105 41.2248 35.4105 43.3743C35.4105 45.4266 37.5599 46.7945 39.6116 46.7945C41.5659 46.7945 43.1291 45.4266 43.1291 43.3743C43.1291 41.2248 41.5659 39.9548 39.6116 39.9548ZM83.2854 59.9844C81.8196 59.9844 80.5495 61.2542 80.5495 62.8173C80.5495 64.0874 81.8196 65.3574 83.2854 65.3574C85.2392 65.3574 86.7049 64.0874 86.7049 62.8173C86.7049 61.2543 85.2392 59.9844 83.2854 59.9844Z" fill="white"/>
</g>
<defs>
<clipPath id="clip0_234_107">
<rect width="120" height="120" fill="white"/>
</clipPath>
</defs>
</svg>
