<svg width="138" height="138" viewBox="0 0 138 138" fill="none" xmlns="http://www.w3.org/2000/svg">
<circle cx="69" cy="69" r="51" fill="#C19646"/>
<path d="M76.9183 68.9514C75.5502 68.9514 74.1815 70.2219 74.1815 71.7859C74.1815 73.0566 75.5494 74.3273 76.9183 74.3273C78.9716 74.3273 80.4376 73.0566 80.4376 71.7859C80.4376 70.222 78.9716 68.9514 76.9183 68.9514ZM67.9248 55.7538C70.0754 55.7538 71.4442 54.3857 71.4442 52.3323C71.4442 50.1816 70.0755 48.911 67.9248 48.911C65.872 48.911 63.9167 50.1817 63.9167 52.3323C63.9166 54.3858 65.872 55.7538 67.9248 55.7538ZM69.0001 9C35.8627 9 9 35.8627 9 69.0001C9 102.137 35.8627 129 69.0001 129C102.137 129 129 102.137 129 69.0001C129 35.8627 102.137 9 69.0001 9ZM57.6606 84.201C54.0432 84.201 51.4038 83.6149 47.9824 82.637L38.109 87.623L40.9444 79.2154C34.0036 74.3281 29.8975 68.1693 29.8975 60.6419C29.8975 47.347 42.4104 37.1802 57.6607 37.1802C71.1509 37.1802 83.1751 45.1964 85.5212 56.5365C84.5437 56.3405 83.6636 56.2433 82.8817 56.2433C69.5868 56.2433 59.3227 66.2141 59.3227 78.2383C59.3227 80.2909 59.6159 82.1482 60.1048 84.1037C59.3227 84.201 58.4426 84.201 57.6606 84.201ZM98.4252 93.7811L100.38 100.82L92.9506 96.6165C90.1158 97.2026 87.3784 98.0826 84.5437 98.0826C71.4441 98.0826 61.082 89.0892 61.082 77.945C61.082 66.8008 71.4442 57.8073 84.5437 57.8073C96.9585 57.8073 108.103 66.8008 108.103 77.945C108.103 84.201 103.899 89.7731 98.4252 93.7811ZM48.5691 48.911C46.5162 48.911 44.3656 50.1817 44.3656 52.3323C44.3656 54.3857 46.5162 55.7544 48.5691 55.7544C50.5244 55.7544 52.0884 54.3857 52.0884 52.3323C52.0884 50.1817 50.5244 48.911 48.5691 48.911ZM92.2665 68.9514C90.7999 68.9514 89.5291 70.2219 89.5291 71.7859C89.5291 73.0566 90.7999 74.3273 92.2665 74.3273C94.2213 74.3273 95.6878 73.0566 95.6878 71.7859C95.6878 70.222 94.2213 68.9514 92.2665 68.9514Z" fill="white"/>
</svg>
