<svg width="138" height="138" viewBox="0 0 138 138" fill="none" xmlns="http://www.w3.org/2000/svg">
<path d="M130 69C130 102.137 103.137 129 70 129C36.8629 129 10 102.137 10 69C10 35.8629 36.8629 9 70 9C103.137 9 130 35.8629 130 69Z" fill="#C19746"/>
<path d="M70.0038 9C36.865 9 10 35.8649 10 69C10 102.135 36.8649 129 70 129C103.135 129 130 102.135 130 69C130 35.8651 103.139 9 70.0038 9ZM98.6163 86.9138C93.49 94.8 85.615 98.7112 76.8175 100.867C72.5613 101.917 68.1175 102.24 65.8075 102.593C54.8988 102.323 46.4613 100.71 38.8526 95.9814C29.2639 90.0226 26.4701 81.0939 31.4839 70.9689C36.8688 60.1089 45.2464 52.0764 56.2414 46.9126C58.2814 45.9564 60.6026 45.4126 62.8414 45.1351C67.4539 44.5614 70.1463 47.1789 70.0301 51.8214C70.0039 52.8376 69.775 53.8389 69.7152 54.8626C69.6704 55.7364 69.734 56.6251 69.7565 57.5026C70.6527 57.3564 71.5565 57.2626 72.434 57.0675C75.9891 56.3062 79.5065 55.035 83.0877 54.8438C89.3052 54.5138 92.0915 58.2789 90.2015 64.185C89.3877 66.7013 89.9952 67.5488 92.3466 68.3925C101.189 71.58 103.735 79.0463 98.6163 86.9138ZM93.9775 53.8049C92.515 51.9449 89.1963 51.5136 88.1463 51.5024C86.5938 51.4911 85.3414 50.2199 85.3562 48.6711C85.3675 47.126 86.6238 45.8849 88.1611 45.8849H88.1836C88.8699 45.8849 95.0236 46.0611 98.3911 50.3286C99.7263 52.0199 101.095 55.0274 100.011 59.7074C99.7111 61.0125 98.5524 61.8899 97.2736 61.8899C97.0674 61.8899 96.8574 61.8636 96.6436 61.8111C95.1285 61.4624 94.1874 59.9511 94.5361 58.4436C95.0086 56.3961 94.825 54.8774 93.9775 53.8049ZM110.511 63C110.29 64.38 109.101 65.3775 107.736 65.3775C107.597 65.3775 107.444 65.3587 107.297 65.3362C105.767 65.1 104.721 63.66 104.957 62.1263C106 55.4925 104.939 50.3325 101.789 46.8075C96.3061 40.665 86.2561 41.0288 86.1549 41.0288C84.5874 41.0925 83.29 39.8925 83.2224 38.3475C83.1586 36.7988 84.3661 35.4863 85.9111 35.415C86.4324 35.3963 98.7363 34.965 105.981 43.0613C110.301 47.91 111.824 54.6188 110.511 63Z" fill="white"/>
<path d="M57.0884 82C54.4597 82 52.0411 84.1287 52.0005 86.475C51.9673 88.4768 53.678 90 55.9712 90C58.6995 90.0036 60.9815 87.9836 60.9998 85.554C61.0183 83.4833 59.374 82 57.0882 82H57.0884Z" fill="white"/>
<path d="M63.5902 80.0022C62.6184 80.3233 61.683 80.7957 61.0137 81.3668C60.8715 81.4903 61.8664 82.219 62.6733 83C63.7094 82.2344 64.6447 81.7929 64.9885 81.197C65.1398 80.9408 63.7507 79.9467 63.5902 80.0022Z" fill="white"/>
<path d="M79.9703 69.156C78.6914 68.3611 77.3158 67.6956 75.9106 67.13C71.2077 65.2591 66.2743 64.7045 61.2591 65.1408C53.675 65.7952 46.6709 68.0174 41.2244 73.6115C34.908 80.093 35.763 88.2975 43.1985 93.4407C48.2323 96.9163 53.9464 98.1105 59.9839 97.9663C61.0807 97.9663 62.1811 98.0513 63.2705 97.9514C70.1446 97.2969 76.4758 95.2227 81.7215 90.5972C89.3875 83.8495 88.6179 74.5579 79.9705 69.156H79.9703ZM71.4641 88.2087C68.8543 92.1427 64.2332 94.5313 59.2143 94.5571C52.8867 94.5978 48.1392 91.0631 47.299 85.5651C47.1131 84.4411 47.165 83.2061 47.4217 82.1043C48.6969 76.7098 52.4517 73.6964 57.5636 72.3358C62.6123 71.0047 67.3077 71.8736 70.9808 75.8631C74.0219 79.1649 74.1446 84.197 71.4641 88.2087Z" fill="white"/>
</svg>
