<svg width="138" height="138" viewBox="0 0 138 138" fill="none" xmlns="http://www.w3.org/2000/svg">
<path d="M9 69C9 84.913 15.3214 100.174 26.5736 111.426C37.8258 122.679 53.087 129 69 129C84.913 129 100.174 122.679 111.426 111.426C122.679 100.174 129 84.913 129 69C129 53.087 122.679 37.8258 111.426 26.5736C100.174 15.3214 84.913 9 69 9C53.087 9 37.8258 15.3214 26.5736 26.5736C15.3214 37.8258 9 53.087 9 69Z" fill="white"/>
<path d="M70.313 34H81.6412C82.0552 35.421 82.4272 36.7336 82.8412 38.0401C83.661 41.2639 85.4177 44.1703 87.8879 46.3896C90.3581 48.6089 93.4301 50.041 96.7134 50.5037C98.2554 50.7988 99.0235 51.3286 98.9995 52.9543C98.9575 56.0491 98.9995 59.15 98.9995 62.5097C93.0198 62.7002 87.1384 60.9497 82.2292 57.5183V82.5539C82.2589 86.7512 81.0021 90.8563 78.6291 94.313C75.9708 98.3801 72.0141 101.42 67.408 102.934C62.8019 104.448 57.8197 104.347 53.2787 102.646C48.5534 100.71 44.6059 97.249 42.06 92.8099C39.514 88.3709 38.5149 83.207 39.2204 78.1344C40.0244 72.6617 42.8286 67.685 47.0874 64.1726C51.3461 60.6602 56.7548 58.8635 62.2608 59.1319C62.7851 59.2022 63.3042 59.3068 63.8149 59.445V72.3482C63.1368 72.2819 62.5428 72.2217 61.9488 72.1735C59.7962 71.7748 57.5726 72.183 55.7001 73.3207C53.8276 74.4583 52.4364 76.2463 51.7906 78.3451C51.0416 80.6357 51.0989 83.115 51.953 85.3683C52.807 87.6216 54.4061 89.5123 56.4827 90.7244C57.9031 91.4312 59.4762 91.7726 61.0607 91.7179C62.6452 91.6632 64.1912 91.2141 65.5598 90.411C66.9284 89.6079 68.0766 88.476 68.901 87.117C69.7255 85.7581 70.2004 84.2149 70.283 82.6261C70.457 77.3336 70.331 72.0351 70.331 66.7365V37.0406C70.313 36.1074 70.313 35.1741 70.313 34Z" fill="#C19746"/>
</svg>
